<svg width="16" height="15" viewBox="0 0 16 15" fill="none" xmlns="http://www.w3.org/2000/svg">
<path fill-rule="evenodd" clip-rule="evenodd" d="M1.46654 8.55298H11.8919L7.3372 13.1076C6.9732 13.4716 6.9732 14.069 7.3372 14.433C7.7012 14.797 8.2892 14.797 8.6532 14.433L14.8039 8.28231C15.1679 7.91831 15.1679 7.33031 14.8039 6.96631L8.66254 0.806312C8.48816 0.631543 8.25142 0.533325 8.00454 0.533325C7.75765 0.533325 7.52091 0.631543 7.34654 0.806312C6.98254 1.17031 6.98254 1.75831 7.34654 2.12231L11.8919 6.68631H1.46654C0.953203 6.68631 0.533203 7.10631 0.533203 7.61965C0.533203 8.13298 0.953203 8.55298 1.46654 8.55298Z" fill="#C3CAD9"/>
</svg>
