<svg width="18" height="19" viewBox="0 0 18 19" fill="none" xmlns="http://www.w3.org/2000/svg">
<path fill-rule="evenodd" clip-rule="evenodd" d="M12 8.58249V3.41249C12 2.88249 11.79 2.37249 11.41 2.00249L9.7 0.292486C9.51317 0.105233 9.25952 0 8.995 0C8.73048 0 8.47683 0.105233 8.29 0.292486L6.59 1.99249C6.21 2.37249 6 2.88249 6 3.41249V4.58249H2C0.9 4.58249 0 5.48249 0 6.58249V16.5825C0 17.6825 0.9 18.5825 2 18.5825H16C17.1 18.5825 18 17.6825 18 16.5825V10.5825C18 9.48248 17.1 8.58249 16 8.58249H12ZM4 16.5825H2V14.5825H4V16.5825ZM4 12.5825H2V10.5825H4V12.5825ZM4 8.58249H2V6.58249H4V8.58249ZM10 16.5825H8V14.5825H10V16.5825ZM10 12.5825H8V10.5825H10V12.5825ZM10 8.58249H8V6.58249H10V8.58249ZM10 4.58249H8V2.58249H10V4.58249ZM16 16.5825H14V14.5825H16V16.5825ZM16 12.5825H14V10.5825H16V12.5825Z" fill="#C3CAD9"/>
</svg>
