<svg width="65" height="40" viewBox="0 0 65 40" fill="none" xmlns="http://www.w3.org/2000/svg">
<g filter="url(#filter0_i_4108_13601)">
<rect width="65" height="40" rx="3" fill="url(#paint0_linear_4108_13601)"/>
</g>
<path d="M11.6582 15.3242H12.4639V16.4619H11.6582V18H10.2471V16.4619H7.33203L7.26855 15.5732L10.2324 10.8906H11.6582V15.3242ZM8.6748 15.3242H10.2471V12.8145L10.1543 12.9756L8.6748 15.3242ZM17.4004 15.3242H18.2061V16.4619H17.4004V18H15.9893V16.4619H13.0742L13.0107 15.5732L15.9746 10.8906H17.4004V15.3242ZM14.417 15.3242H15.9893V12.8145L15.8965 12.9756L14.417 15.3242ZM19.1777 14.5039L19.5879 10.8906H23.5723V12.0674H20.7451L20.5693 13.5957C20.9046 13.4167 21.2611 13.3271 21.6387 13.3271C22.3158 13.3271 22.8464 13.5371 23.2305 13.957C23.6146 14.377 23.8066 14.9645 23.8066 15.7197C23.8066 16.1787 23.709 16.5905 23.5137 16.9551C23.3216 17.3164 23.0449 17.598 22.6836 17.7998C22.3223 17.9984 21.8958 18.0977 21.4043 18.0977C20.9746 18.0977 20.5758 18.0114 20.208 17.8389C19.8402 17.6631 19.5488 17.4173 19.334 17.1016C19.1224 16.7858 19.0101 16.4261 18.9971 16.0225H20.3936C20.4229 16.3187 20.5254 16.5498 20.7012 16.7158C20.8802 16.8786 21.113 16.96 21.3994 16.96C21.7184 16.96 21.9642 16.846 22.1367 16.6182C22.3092 16.387 22.3955 16.0615 22.3955 15.6416C22.3955 15.238 22.2962 14.9287 22.0977 14.7139C21.8991 14.499 21.6175 14.3916 21.2529 14.3916C20.9176 14.3916 20.6458 14.4795 20.4375 14.6553L20.3008 14.7822L19.1777 14.5039ZM28.5381 10.8174V11.9795H28.4014C27.7633 11.9893 27.249 12.1553 26.8584 12.4775C26.471 12.7998 26.2383 13.2474 26.1602 13.8203C26.5378 13.4362 27.0146 13.2441 27.5908 13.2441C28.2093 13.2441 28.7008 13.4655 29.0654 13.9082C29.43 14.3509 29.6123 14.9336 29.6123 15.6562C29.6123 16.1185 29.5114 16.5368 29.3096 16.9111C29.111 17.2855 28.8278 17.5768 28.46 17.7852C28.0954 17.9935 27.682 18.0977 27.2197 18.0977C26.471 18.0977 25.8656 17.8372 25.4033 17.3164C24.9443 16.7956 24.7148 16.1006 24.7148 15.2314V14.7236C24.7148 13.9521 24.8597 13.2718 25.1494 12.6826C25.4424 12.0902 25.8607 11.6328 26.4043 11.3105C26.9512 10.985 27.5843 10.8206 28.3037 10.8174H28.5381ZM27.1611 14.377C26.9333 14.377 26.7266 14.4372 26.541 14.5576C26.3555 14.6748 26.2188 14.8311 26.1309 15.0264V15.4561C26.1309 15.9281 26.2236 16.2975 26.4092 16.5645C26.5947 16.8281 26.8551 16.96 27.1904 16.96C27.4932 16.96 27.7373 16.8411 27.9229 16.6035C28.1117 16.3626 28.2061 16.0518 28.2061 15.6709C28.2061 15.2835 28.1117 14.971 27.9229 14.7334C27.734 14.4958 27.4801 14.377 27.1611 14.377Z" fill="white"/>
<path d="M50.6531 32.7454H44.4155V21.5356H50.6532L50.6531 32.7454Z" fill="#FF5F00"/>
<path d="M44.811 27.1407C44.811 24.8668 45.8757 22.8412 47.5336 21.5358C46.2786 20.5463 44.7264 20.0092 43.1282 20.0115C39.1913 20.0115 36 23.2033 36 27.1407C36 31.0781 39.1913 34.2699 43.1282 34.2699C44.7265 34.2723 46.2787 33.7352 47.5337 32.7456C45.8759 31.4404 44.811 29.4147 44.811 27.1407Z" fill="#EB001B"/>
<path d="M59.0685 27.1407C59.0685 31.0781 55.8772 34.2699 51.9402 34.2699C50.3419 34.2722 48.7894 33.7352 47.5342 32.7456C49.1926 31.4402 50.2573 29.4147 50.2573 27.1407C50.2573 24.8667 49.1926 22.8412 47.5342 21.5358C48.7894 20.5463 50.3418 20.0092 51.9401 20.0115C55.877 20.0115 59.0684 23.2033 59.0684 27.1407" fill="#F79E1B"/>
<defs>
<filter id="filter0_i_4108_13601" x="0" y="0" width="65" height="41" filterUnits="userSpaceOnUse" color-interpolation-filters="sRGB">
<feFlood flood-opacity="0" result="BackgroundImageFix"/>
<feBlend mode="normal" in="SourceGraphic" in2="BackgroundImageFix" result="shape"/>
<feColorMatrix in="SourceAlpha" type="matrix" values="0 0 0 0 0 0 0 0 0 0 0 0 0 0 0 0 0 0 127 0" result="hardAlpha"/>
<feOffset dy="1"/>
<feGaussianBlur stdDeviation="31.5"/>
<feComposite in2="hardAlpha" operator="arithmetic" k2="-1" k3="1"/>
<feColorMatrix type="matrix" values="0 0 0 0 0.955828 0 0 0 0 0.936623 0 0 0 0 1 0 0 0 0.2 0"/>
<feBlend mode="normal" in2="shape" result="effect1_innerShadow_4108_13601"/>
</filter>
<linearGradient id="paint0_linear_4108_13601" x1="10.6351" y1="-9.76644" x2="-2.04046" y2="58.601" gradientUnits="userSpaceOnUse">
<stop stop-color="#6246FF"/>
<stop offset="1" stop-color="#FFB9B9"/>
</linearGradient>
</defs>
</svg>
