<svg width="65" height="40" viewBox="0 0 65 40" fill="none" xmlns="http://www.w3.org/2000/svg">
<g filter="url(#filter0_i_4108_13612)">
<rect width="65" height="40" rx="3" fill="url(#paint0_linear_4108_13612)"/>
</g>
<path d="M11.3115 9.81738V10.9795H11.1748C10.5368 10.9893 10.0225 11.1553 9.63184 11.4775C9.24447 11.7998 9.01172 12.2474 8.93359 12.8203C9.3112 12.4362 9.78809 12.2441 10.3643 12.2441C10.9827 12.2441 11.4743 12.4655 11.8389 12.9082C12.2035 13.3509 12.3857 13.9336 12.3857 14.6562C12.3857 15.1185 12.2848 15.5368 12.083 15.9111C11.8844 16.2855 11.6012 16.5768 11.2334 16.7852C10.8688 16.9935 10.4554 17.0977 9.99316 17.0977C9.24447 17.0977 8.639 16.8372 8.17676 16.3164C7.71777 15.7956 7.48828 15.1006 7.48828 14.2314V13.7236C7.48828 12.9521 7.63314 12.2718 7.92285 11.6826C8.21582 11.0902 8.63411 10.6328 9.17773 10.3105C9.72461 9.98503 10.3577 9.82064 11.0771 9.81738H11.3115ZM9.93457 13.377C9.70671 13.377 9.5 13.4372 9.31445 13.5576C9.12891 13.6748 8.99219 13.8311 8.9043 14.0264V14.4561C8.9043 14.9281 8.99707 15.2975 9.18262 15.5645C9.36816 15.8281 9.62858 15.96 9.96387 15.96C10.2666 15.96 10.5107 15.8411 10.6963 15.6035C10.8851 15.3626 10.9795 15.0518 10.9795 14.6709C10.9795 14.2835 10.8851 13.971 10.6963 13.7334C10.5075 13.4958 10.2536 13.377 9.93457 13.377ZM18.0596 10.6816L15.3105 17H13.8213L16.5752 11.0332H13.04V9.89062H18.0596V10.6816ZM19.1777 13.5039L19.5879 9.89062H23.5723V11.0674H20.7451L20.5693 12.5957C20.9046 12.4167 21.2611 12.3271 21.6387 12.3271C22.3158 12.3271 22.8464 12.5371 23.2305 12.957C23.6146 13.377 23.8066 13.9645 23.8066 14.7197C23.8066 15.1787 23.709 15.5905 23.5137 15.9551C23.3216 16.3164 23.0449 16.598 22.6836 16.7998C22.3223 16.9984 21.8958 17.0977 21.4043 17.0977C20.9746 17.0977 20.5758 17.0114 20.208 16.8389C19.8402 16.6631 19.5488 16.4173 19.334 16.1016C19.1224 15.7858 19.0101 15.4261 18.9971 15.0225H20.3936C20.4229 15.3187 20.5254 15.5498 20.7012 15.7158C20.8802 15.8786 21.113 15.96 21.3994 15.96C21.7184 15.96 21.9642 15.846 22.1367 15.6182C22.3092 15.387 22.3955 15.0615 22.3955 14.6416C22.3955 14.238 22.2962 13.9287 22.0977 13.7139C21.8991 13.499 21.6175 13.3916 21.2529 13.3916C20.9176 13.3916 20.6458 13.4795 20.4375 13.6553L20.3008 13.7822L19.1777 13.5039ZM26.1455 12.8203H26.8975C27.2555 12.8203 27.5208 12.7308 27.6934 12.5518C27.8659 12.3727 27.9521 12.1351 27.9521 11.8389C27.9521 11.5524 27.8659 11.3294 27.6934 11.1699C27.5241 11.0104 27.2897 10.9307 26.9902 10.9307C26.7201 10.9307 26.4938 11.0055 26.3115 11.1553C26.1292 11.3018 26.0381 11.4938 26.0381 11.7314H24.627C24.627 11.3604 24.7262 11.0283 24.9248 10.7354C25.1266 10.4391 25.4066 10.208 25.7646 10.042C26.126 9.87598 26.5231 9.79297 26.9561 9.79297C27.708 9.79297 28.2972 9.97363 28.7236 10.335C29.1501 10.693 29.3633 11.1878 29.3633 11.8193C29.3633 12.1449 29.264 12.4443 29.0654 12.7178C28.8669 12.9912 28.6064 13.2012 28.2842 13.3477C28.6846 13.4909 28.9824 13.7057 29.1777 13.9922C29.3763 14.2786 29.4756 14.6172 29.4756 15.0078C29.4756 15.6393 29.2445 16.1455 28.7822 16.5264C28.3232 16.9072 27.7145 17.0977 26.9561 17.0977C26.2464 17.0977 25.6654 16.9105 25.2129 16.5361C24.7637 16.1618 24.5391 15.667 24.5391 15.0518H25.9502C25.9502 15.3187 26.0495 15.5368 26.248 15.7061C26.4499 15.8753 26.6973 15.96 26.9902 15.96C27.3255 15.96 27.5876 15.8721 27.7764 15.6963C27.9684 15.5173 28.0645 15.2812 28.0645 14.9883C28.0645 14.2786 27.6738 13.9238 26.8926 13.9238H26.1455V12.8203Z" fill="white"/>
<path d="M50.6531 32.7454H44.4155V21.5356H50.6532L50.6531 32.7454Z" fill="#FF5F00"/>
<path d="M44.811 27.1407C44.811 24.8668 45.8757 22.8412 47.5336 21.5358C46.2786 20.5463 44.7264 20.0092 43.1282 20.0115C39.1913 20.0115 36 23.2033 36 27.1407C36 31.0781 39.1913 34.2699 43.1282 34.2699C44.7265 34.2723 46.2787 33.7352 47.5337 32.7456C45.8759 31.4404 44.811 29.4147 44.811 27.1407Z" fill="#EB001B"/>
<path d="M59.0685 27.1407C59.0685 31.0781 55.8772 34.2699 51.9402 34.2699C50.3419 34.2722 48.7894 33.7352 47.5342 32.7456C49.1926 31.4402 50.2573 29.4147 50.2573 27.1407C50.2573 24.8667 49.1926 22.8412 47.5342 21.5358C48.7894 20.5463 50.3418 20.0092 51.9401 20.0115C55.877 20.0115 59.0684 23.2033 59.0684 27.1407" fill="#F79E1B"/>
<defs>
<filter id="filter0_i_4108_13612" x="0" y="0" width="65" height="41" filterUnits="userSpaceOnUse" color-interpolation-filters="sRGB">
<feFlood flood-opacity="0" result="BackgroundImageFix"/>
<feBlend mode="normal" in="SourceGraphic" in2="BackgroundImageFix" result="shape"/>
<feColorMatrix in="SourceAlpha" type="matrix" values="0 0 0 0 0 0 0 0 0 0 0 0 0 0 0 0 0 0 127 0" result="hardAlpha"/>
<feOffset dy="1"/>
<feGaussianBlur stdDeviation="31.5"/>
<feComposite in2="hardAlpha" operator="arithmetic" k2="-1" k3="1"/>
<feColorMatrix type="matrix" values="0 0 0 0 0.955828 0 0 0 0 0.936623 0 0 0 0 1 0 0 0 0.2 0"/>
<feBlend mode="normal" in2="shape" result="effect1_innerShadow_4108_13612"/>
</filter>
<linearGradient id="paint0_linear_4108_13612" x1="10.6351" y1="-9.76644" x2="-2.04046" y2="58.601" gradientUnits="userSpaceOnUse">
<stop stop-color="#FFA346"/>
<stop offset="1" stop-color="#F2E32E"/>
</linearGradient>
</defs>
</svg>
