<svg width="65" height="40" viewBox="0 0 65 40" fill="none" xmlns="http://www.w3.org/2000/svg">
<g filter="url(#filter0_i_4108_13620)">
<rect width="65" height="40" rx="3" fill="url(#paint0_linear_4108_13620)"/>
</g>
<path d="M10.7842 14.1582C10.4163 14.5195 9.98665 14.7002 9.49512 14.7002C8.86686 14.7002 8.36393 14.4854 7.98633 14.0557C7.60872 13.6227 7.41992 13.04 7.41992 12.3076C7.41992 11.8421 7.52083 11.4157 7.72266 11.0283C7.92773 10.6377 8.21257 10.335 8.57715 10.1201C8.94173 9.90202 9.35189 9.79297 9.80762 9.79297C10.2764 9.79297 10.693 9.91016 11.0576 10.1445C11.4222 10.3789 11.7054 10.7158 11.9072 11.1553C12.109 11.5947 12.2116 12.0977 12.2148 12.6641V13.1865C12.2148 14.3714 11.9202 15.3024 11.3311 15.9795C10.7419 16.6566 9.9069 17.0179 8.82617 17.0635L8.47949 17.0684V15.8916L8.79199 15.8867C10.0192 15.8314 10.6833 15.2552 10.7842 14.1582ZM9.8418 13.6211C10.0697 13.6211 10.265 13.5625 10.4277 13.4453C10.5938 13.3281 10.7191 13.1865 10.8037 13.0205V12.4395C10.8037 11.9609 10.7126 11.5898 10.5303 11.3262C10.348 11.0625 10.1038 10.9307 9.79785 10.9307C9.51465 10.9307 9.2819 11.0609 9.09961 11.3213C8.91732 11.5785 8.82617 11.9023 8.82617 12.293C8.82617 12.6803 8.91406 12.9993 9.08984 13.25C9.26888 13.4974 9.51953 13.6211 9.8418 13.6211ZM17.8594 11.7803C17.8594 12.1253 17.7731 12.4313 17.6006 12.6982C17.4281 12.9652 17.1904 13.1784 16.8877 13.3379C17.2327 13.5039 17.5062 13.7334 17.708 14.0264C17.9098 14.3161 18.0107 14.6579 18.0107 15.0518C18.0107 15.6833 17.7959 16.1829 17.3662 16.5508C16.9365 16.9154 16.3522 17.0977 15.6133 17.0977C14.8743 17.0977 14.2884 16.9137 13.8555 16.5459C13.4225 16.1781 13.2061 15.68 13.2061 15.0518C13.2061 14.6579 13.307 14.3145 13.5088 14.0215C13.7106 13.7285 13.9824 13.5007 14.3242 13.3379C14.0215 13.1784 13.7839 12.9652 13.6113 12.6982C13.4421 12.4313 13.3574 12.1253 13.3574 11.7803C13.3574 11.1748 13.5592 10.693 13.9629 10.335C14.3665 9.97363 14.915 9.79297 15.6084 9.79297C16.2985 9.79297 16.8454 9.97201 17.249 10.3301C17.6559 10.6849 17.8594 11.1683 17.8594 11.7803ZM16.5947 14.9492C16.5947 14.64 16.5052 14.3926 16.3262 14.207C16.1471 14.0215 15.9062 13.9287 15.6035 13.9287C15.304 13.9287 15.0648 14.0215 14.8857 14.207C14.7067 14.3893 14.6172 14.6367 14.6172 14.9492C14.6172 15.252 14.7051 15.4961 14.8809 15.6816C15.0566 15.8672 15.3008 15.96 15.6133 15.96C15.9193 15.96 16.1585 15.8704 16.3311 15.6914C16.5068 15.5124 16.5947 15.265 16.5947 14.9492ZM16.4482 11.8486C16.4482 11.5719 16.375 11.3506 16.2285 11.1846C16.082 11.0153 15.8753 10.9307 15.6084 10.9307C15.3447 10.9307 15.1396 11.012 14.9932 11.1748C14.8467 11.3376 14.7734 11.5622 14.7734 11.8486C14.7734 12.1318 14.8467 12.3597 14.9932 12.5322C15.1396 12.7048 15.3464 12.791 15.6133 12.791C15.8802 12.791 16.0853 12.7048 16.2285 12.5322C16.375 12.3597 16.4482 12.1318 16.4482 11.8486ZM23.8018 10.6816L21.0527 17H19.5635L22.3174 11.0332H18.7822V9.89062H23.8018V10.6816ZM24.9199 13.5039L25.3301 9.89062H29.3145V11.0674H26.4873L26.3115 12.5957C26.6468 12.4167 27.0033 12.3271 27.3809 12.3271C28.0579 12.3271 28.5885 12.5371 28.9727 12.957C29.3568 13.377 29.5488 13.9645 29.5488 14.7197C29.5488 15.1787 29.4512 15.5905 29.2559 15.9551C29.0638 16.3164 28.7871 16.598 28.4258 16.7998C28.0645 16.9984 27.638 17.0977 27.1465 17.0977C26.7168 17.0977 26.318 17.0114 25.9502 16.8389C25.5824 16.6631 25.291 16.4173 25.0762 16.1016C24.8646 15.7858 24.7523 15.4261 24.7393 15.0225H26.1357C26.165 15.3187 26.2676 15.5498 26.4434 15.7158C26.6224 15.8786 26.8551 15.96 27.1416 15.96C27.4606 15.96 27.7064 15.846 27.8789 15.6182C28.0514 15.387 28.1377 15.0615 28.1377 14.6416C28.1377 14.238 28.0384 13.9287 27.8398 13.7139C27.6413 13.499 27.3597 13.3916 26.9951 13.3916C26.6598 13.3916 26.388 13.4795 26.1797 13.6553L26.043 13.7822L24.9199 13.5039Z" fill="white"/>
<path d="M44.387 32.7142H42.4404L43.657 25.2374H45.6038L44.387 32.7142Z" fill="white"/>
<path d="M40.803 25.2374L38.9472 30.38L38.7276 29.2726L38.7278 29.273L38.0728 25.9106C38.0728 25.9106 37.9936 25.2374 37.1494 25.2374H34.0814L34.0454 25.364C34.0454 25.364 34.9836 25.5592 36.0816 26.2186L37.7728 32.7144H39.801L42.898 25.2374H40.803Z" fill="white"/>
<path fill-rule="evenodd" clip-rule="evenodd" d="M57.9016 32.7142H56.1142L55.8862 31.6036H53.4116L53.0058 32.7142H50.9766L53.8798 25.7944C53.8798 25.7944 54.0558 25.2372 54.7784 25.2372H56.3432L57.9016 32.7142ZM54.995 27.2714L53.9722 30.0694H55.5704L54.995 27.2714Z" fill="white"/>
<path d="M51.1284 27.0354L51.4062 25.4298C51.4062 25.4298 50.549 25.1038 49.6554 25.1038C48.6894 25.1038 46.3954 25.526 46.3954 27.579C46.3954 29.5106 49.0878 29.5346 49.0878 30.5492C49.0878 31.5638 46.6728 31.382 45.8758 30.7422L45.5864 32.421C45.5864 32.421 46.4556 32.8432 47.7836 32.8432C49.112 32.8432 51.116 32.1554 51.116 30.2834C51.116 28.3394 48.3994 28.1584 48.3994 27.3132C48.3996 26.4678 50.2954 26.5764 51.1284 27.0354Z" fill="white"/>
<path d="M38.7278 29.2728L38.0728 25.9104C38.0728 25.9104 37.9936 25.2372 37.1494 25.2372H34.0814L34.0454 25.3638C34.0454 25.3638 35.52 25.6694 36.9344 26.8144C38.2868 27.9088 38.7278 29.2728 38.7278 29.2728Z" fill="white"/>
<defs>
<filter id="filter0_i_4108_13620" x="0" y="0" width="65" height="41" filterUnits="userSpaceOnUse" color-interpolation-filters="sRGB">
<feFlood flood-opacity="0" result="BackgroundImageFix"/>
<feBlend mode="normal" in="SourceGraphic" in2="BackgroundImageFix" result="shape"/>
<feColorMatrix in="SourceAlpha" type="matrix" values="0 0 0 0 0 0 0 0 0 0 0 0 0 0 0 0 0 0 127 0" result="hardAlpha"/>
<feOffset dy="1"/>
<feGaussianBlur stdDeviation="31.5"/>
<feComposite in2="hardAlpha" operator="arithmetic" k2="-1" k3="1"/>
<feColorMatrix type="matrix" values="0 0 0 0 0.955828 0 0 0 0 0.936623 0 0 0 0 1 0 0 0 0.2 0"/>
<feBlend mode="normal" in2="shape" result="effect1_innerShadow_4108_13620"/>
</filter>
<linearGradient id="paint0_linear_4108_13620" x1="11.7029" y1="-9.56847" x2="-0.715751" y2="57.4132" gradientUnits="userSpaceOnUse">
<stop stop-color="#3B3B3B"/>
<stop offset="1" stop-color="#767676"/>
</linearGradient>
</defs>
</svg>
