<svg width="20" height="20" viewBox="0 0 20 20" fill="none" xmlns="http://www.w3.org/2000/svg">
<path fill-rule="evenodd" clip-rule="evenodd" d="M9.99984 0.666687C4.84784 0.666687 0.666504 4.84802 0.666504 10C0.666504 15.152 4.84784 19.3334 9.99984 19.3334C15.1518 19.3334 19.3332 15.152 19.3332 10C19.3332 4.84802 15.1518 0.666687 9.99984 0.666687ZM13.7332 10.9334H10.9332V13.7334C10.9332 14.2467 10.5132 14.6667 9.99984 14.6667C9.4865 14.6667 9.0665 14.2467 9.0665 13.7334V10.9334H6.2665C5.75317 10.9334 5.33317 10.5134 5.33317 10C5.33317 9.48669 5.75317 9.06669 6.2665 9.06669H9.0665V6.26669C9.0665 5.75335 9.4865 5.33335 9.99984 5.33335C10.5132 5.33335 10.9332 5.75335 10.9332 6.26669V9.06669H13.7332C14.2465 9.06669 14.6665 9.48669 14.6665 10C14.6665 10.5134 14.2465 10.9334 13.7332 10.9334Z" fill="white"/>
</svg>
